<svg width="1600" height="1360" viewBox="0 0 1600 1360" fill="none" xmlns="http://www.w3.org/2000/svg">
  <rect width="1600" height="1360" fill="#F3F1EC"/>
  <text x="96" y="108" fill="#566273" font-family="'Untitled Sans', 'Helvetica Neue', Arial, sans-serif" font-size="28" letter-spacing="4">BASELINE BRAND BOARD</text>
  <text x="96" y="228" fill="#16181D" font-family="'Untitled Sans', 'Helvetica Neue', Arial, sans-serif" font-size="144" font-weight="500" letter-spacing="-5">baseline</text>
  <rect x="100" y="260" width="646" height="8" rx="4" fill="#566273"/>
  <rect x="748" y="248" width="10" height="32" rx="5" fill="#C8674A"/>
  <text x="100" y="336" fill="#566273" font-family="'Untitled Sans', 'Helvetica Neue', Arial, sans-serif" font-size="28" letter-spacing="2">SET THE STANDARD BEFORE RELEASE</text>

  <text x="96" y="446" fill="#16181D" font-family="'Untitled Sans', 'Helvetica Neue', Arial, sans-serif" font-size="26" letter-spacing="3">CHOSEN ICON</text>
  <rect x="96" y="490" width="300" height="300" rx="56" fill="#16181D"/>
  <path d="M150 562V722H330" stroke="#F3F1EC" stroke-width="14" stroke-linecap="round" stroke-linejoin="round"/>
  <path d="M184 654L224 632L262 642L320 572" stroke="#C8674A" stroke-width="14" stroke-linecap="round" stroke-linejoin="round"/>
  <circle cx="320" cy="572" r="9" fill="#A7B1BA"/>
  <path d="M184 654H320" stroke="#566273" stroke-width="8" stroke-linecap="round"/>
  <rect x="460" y="490" width="300" height="300" rx="56" fill="#F3F1EC" stroke="#D8D2C8" stroke-width="2"/>
  <path d="M514 562V722H694" stroke="#16181D" stroke-width="14" stroke-linecap="round" stroke-linejoin="round"/>
  <path d="M548 654L588 632L626 642L684 572" stroke="#C8674A" stroke-width="14" stroke-linecap="round" stroke-linejoin="round"/>
  <circle cx="684" cy="572" r="9" fill="#566273"/>
  <path d="M548 654H684" stroke="#A7B1BA" stroke-width="8" stroke-linecap="round"/>
  <text x="96" y="840" fill="#566273" font-family="'Untitled Sans', 'Helvetica Neue', Arial, sans-serif" font-size="22">Primary dark application</text>
  <text x="460" y="840" fill="#566273" font-family="'Untitled Sans', 'Helvetica Neue', Arial, sans-serif" font-size="22">Light application</text>

  <text x="96" y="928" fill="#16181D" font-family="'Untitled Sans', 'Helvetica Neue', Arial, sans-serif" font-size="26" letter-spacing="3">COLOUR SYSTEM</text>
  <rect x="96" y="966" width="200" height="120" rx="24" fill="#16181D"/>
  <rect x="320" y="966" width="200" height="120" rx="24" fill="#566273"/>
  <rect x="544" y="966" width="200" height="120" rx="24" fill="#A7B1BA"/>
  <rect x="768" y="966" width="200" height="120" rx="24" fill="#F3F1EC" stroke="#D0CCC4" stroke-width="2"/>
  <rect x="992" y="966" width="200" height="120" rx="24" fill="#D8D2C8"/>
  <rect x="1216" y="966" width="200" height="120" rx="24" fill="#C8674A"/>

  <text x="96" y="1170" fill="#16181D" font-family="'Untitled Sans', 'Helvetica Neue', Arial, sans-serif" font-size="26" letter-spacing="3">TYPE + TONE</text>
  <text x="96" y="1220" fill="#16181D" font-family="'Untitled Sans', 'Helvetica Neue', Arial, sans-serif" font-size="44" font-weight="500">Untitled Sans</text>
  <text x="96" y="1266" fill="#566273" font-family="'Untitled Sans', 'Helvetica Neue', Arial, sans-serif" font-size="28">Technical. Measured. Dependable. Clear.</text>
</svg>
